<svg width="974" height="806" viewBox="0 0 974 806" fill="none" xmlns="http://www.w3.org/2000/svg">
<g id="linklist">
<g clip-path="url(#clip0)">
<g id="floor">
<path id="Vector" d="M974 768.75V773.75C973.997 776.409 973.438 779.038 972.36 781.47C971.283 783.901 969.71 786.08 967.741 787.868C965.773 789.657 963.454 791.015 960.931 791.855C958.408 792.696 955.737 793 953.09 792.75C913.94 789.03 874.97 782.11 835.69 783.32C763.27 785.53 690.25 815.15 620.15 796.85C600.38 791.69 580.83 782.72 560.49 784.65C542.24 786.38 526 796.7 508.32 801.54C454.55 816.3 399.8 779 344.06 780.51C307.32 781.51 272.14 799.4 235.44 797.41C214.17 796.27 193.91 788.49 173.16 783.7C121.5 771.76 68.3 778.43 15.07 782.57C13.1494 782.717 11.2191 782.467 9.39983 781.834C7.58055 781.201 5.91146 780.199 4.49696 778.892C3.08247 777.584 1.953 775.999 1.17922 774.235C0.405441 772.471 0.00399671 770.566 0 768.64V764.36C0 760.647 1.47499 757.086 4.1005 754.461C6.72601 751.835 10.287 750.36 14 750.36L954.92 749.6C957.43 749.604 959.915 750.102 962.233 751.067C964.551 752.032 966.656 753.444 968.428 755.222C970.199 757 971.604 759.11 972.56 761.432C973.516 763.753 974.005 766.24 974 768.75V768.75Z" fill="#3F5D56"/>
<path id="Vector_2" opacity="0.1" d="M974 768.75V773.75C973.997 776.409 973.438 779.038 972.36 781.47C971.283 783.901 969.71 786.08 967.741 787.868C965.773 789.657 963.454 791.015 960.931 791.855C958.408 792.696 955.737 793 953.09 792.75C913.94 789.03 874.97 782.11 835.69 783.32C763.27 785.53 690.25 815.15 620.15 796.85C600.38 791.69 580.83 782.72 560.49 784.65C542.24 786.38 526 796.7 508.32 801.54C454.55 816.3 399.8 779 344.06 780.51C307.32 781.51 272.14 799.4 235.44 797.41C214.17 796.27 193.91 788.49 173.16 783.7C121.5 771.76 68.3 778.43 15.07 782.57C13.1494 782.717 11.2191 782.467 9.39983 781.834C7.58055 781.201 5.91146 780.199 4.49696 778.892C3.08247 777.584 1.953 775.999 1.17922 774.235C0.405441 772.471 0.00399671 770.566 0 768.64V764.36C0 760.647 1.47499 757.086 4.1005 754.461C6.72601 751.835 10.287 750.36 14 750.36L954.92 749.6C957.43 749.604 959.915 750.102 962.233 751.067C964.551 752.032 966.656 753.444 968.428 755.222C970.199 757 971.604 759.11 972.56 761.432C973.516 763.753 974.005 766.24 974 768.75V768.75Z" fill="black"/>
<path id="Vector_3" d="M974 759.61V764.61C973.999 765.305 973.962 765.999 973.89 766.69C973.357 771.69 970.875 776.279 966.981 779.461C963.087 782.644 958.096 784.163 953.09 783.69C913.94 779.96 874.97 773.04 835.69 774.25C763.27 776.47 690.25 806.09 620.15 787.78C600.38 782.62 580.83 773.65 560.49 775.58C542.24 777.31 526 787.63 508.32 792.48C454.55 807.2 399.8 769.9 344.06 771.4C307.32 772.4 272.14 790.29 235.44 788.31C214.17 787.16 193.91 779.39 173.16 774.59C121.51 762.66 68.3 769.33 15.07 773.47C11.608 773.737 8.17017 772.708 5.42412 770.583C2.67807 768.458 0.819749 765.388 0.209992 761.97C0.066096 761.158 -0.00418845 760.335 -6.98627e-06 759.51V755.23C-6.98627e-06 751.517 1.47499 747.956 4.10049 745.331C6.726 742.705 10.287 741.23 14 741.23L249.83 741.04L731.64 740.64L954.92 740.46C957.43 740.464 959.915 740.962 962.233 741.927C964.551 742.892 966.656 744.304 968.428 746.082C970.199 747.86 971.604 749.97 972.56 752.292C973.516 754.613 974.005 757.1 974 759.61V759.61Z" fill="#3F3D56"/>
<path id="Vector_4" opacity="0.1" d="M743.59 743.51C743.59 745.72 739.23 747.84 731.19 749.83C699 757.78 608 763.51 500.59 763.51C394.92 763.51 305.01 757.96 271.59 750.2C262.59 748.11 257.59 745.86 257.59 743.51C257.59 742.69 258.19 741.88 259.37 741.08L741.18 740.68C742.77 741.61 743.59 742.51 743.59 743.51Z" fill="black"/>
</g>
<g id="card_r" opacity="0.5">
<path id="Vector_5" opacity="0.5" d="M934.97 0H571.03C560.52 0 552 8.52002 552 19.03V101.97C552 112.48 560.52 121 571.03 121H934.97C945.48 121 954 112.48 954 101.97V19.03C954 8.52002 945.48 0 934.97 0Z" fill="#36334A"/>
<path id="Vector_6" opacity="0.5" d="M694 26H601V47H694V26Z" fill="#6C63FF"/>
<path id="Vector_7" opacity="0.3" d="M886 60H601V71H886V60Z" fill="#6C63FF"/>
<path id="Vector_8" opacity="0.3" d="M715 84H601V95H715V84Z" fill="#6C63FF"/>
</g>
<g id="card_l" opacity="0.5">
<path id="Vector_9" opacity="0.5" d="M430.97 98.51H67.03C56.52 98.51 48 107.03 48 117.54V200.48C48 210.99 56.52 219.51 67.03 219.51H430.97C441.48 219.51 450 210.99 450 200.48V117.54C450 107.03 441.48 98.51 430.97 98.51Z" fill="#36334A"/>
<path id="Vector_10" opacity="0.5" d="M190 124.51H97V145.51H190V124.51Z" fill="#36334A"/>
<path id="Vector_11" opacity="0.5" d="M382 158.51H97V169.51H382V158.51Z" fill="#36334A"/>
<path id="Vector_12" opacity="0.5" d="M211 182.51H97V193.51H211V182.51Z" fill="#36334A"/>
<path id="Vector_13" opacity="0.5" d="M430.97 98.51H67.03C56.52 98.51 48 107.03 48 117.54V200.48C48 210.99 56.52 219.51 67.03 219.51H430.97C441.48 219.51 450 210.99 450 200.48V117.54C450 107.03 441.48 98.51 430.97 98.51Z" fill="#36334A"/>
<path id="Vector_14" opacity="0.5" d="M190 124.51H97V145.51H190V124.51Z" fill="#6C63FF"/>
<path id="Vector_15" opacity="0.3" d="M382 158.51H97V169.51H382V158.51Z" fill="#6C63FF"/>
<path id="Vector_16" opacity="0.3" d="M211 182.51H97V193.51H211V182.51Z" fill="#6C63FF"/>
</g>
<g id="body">
<path id="Vector_17" d="M675.6 211.54H669.87C668.605 211.54 667.58 212.565 667.58 213.83V294.27C667.58 295.535 668.605 296.56 669.87 296.56H675.6C676.865 296.56 677.89 295.535 677.89 294.27V213.83C677.89 212.565 676.865 211.54 675.6 211.54Z" fill="#3F3D56"/>
<path id="Vector_18" d="M329.05 144.93H326.26C325.432 144.93 324.76 145.602 324.76 146.43V171.42C324.76 172.248 325.432 172.92 326.26 172.92H329.05C329.878 172.92 330.55 172.248 330.55 171.42V146.43C330.55 145.602 329.878 144.93 329.05 144.93Z" fill="#3F3D56"/>
<path id="Vector_19" d="M329.38 196.17H326.24C325.307 196.17 324.55 196.927 324.55 197.86V243.2C324.55 244.133 325.307 244.89 326.24 244.89H329.38C330.313 244.89 331.07 244.133 331.07 243.2V197.86C331.07 196.927 330.313 196.17 329.38 196.17Z" fill="#3F3D56"/>
<path id="Vector_20" d="M329.25 261.94H326.26C325.371 261.94 324.65 262.661 324.65 263.55V309.47C324.65 310.359 325.371 311.08 326.26 311.08H329.25C330.139 311.08 330.86 310.359 330.86 309.47V263.55C330.86 262.661 330.139 261.94 329.25 261.94Z" fill="#3F3D56"/>
<path id="Vector_21" d="M637.45 52.43H363.73C344.019 52.43 328.04 68.409 328.04 88.12V718.11C328.04 737.821 344.019 753.8 363.73 753.8H637.45C657.161 753.8 673.14 737.821 673.14 718.11V88.12C673.14 68.409 657.161 52.43 637.45 52.43Z" fill="#3F3D56"/>
<path id="Vector_22" d="M512.95 73.38H469.84C468.437 73.38 467.3 74.5172 467.3 75.92V80.63C467.3 82.0328 468.437 83.17 469.84 83.17H512.95C514.353 83.17 515.49 82.0328 515.49 80.63V75.92C515.49 74.5172 514.353 73.38 512.95 73.38Z" fill="#E6E8EC"/>
<path id="Vector_23" d="M528.33 83.82C531.395 83.82 533.88 81.3352 533.88 78.27C533.88 75.2048 531.395 72.72 528.33 72.72C525.265 72.72 522.78 75.2048 522.78 78.27C522.78 81.3352 525.265 83.82 528.33 83.82Z" fill="#E6E8EC"/>
<path id="Vector_24" d="M651.83 98.11V708.11C651.827 715.378 648.938 722.347 643.798 727.485C638.658 732.624 631.688 735.51 624.42 735.51H376.76C369.492 735.51 362.522 732.624 357.382 727.485C352.242 722.347 349.353 715.378 349.35 708.11V98.11C349.35 90.8404 352.238 83.8686 357.378 78.7282C362.519 73.5878 369.49 70.7 376.76 70.7H413.82V75.51C413.823 81.4951 416.201 87.2344 420.434 91.4665C424.666 95.6986 430.405 98.0774 436.39 98.08H562.39C568.367 98.0668 574.095 95.683 578.317 91.4518C582.539 87.2205 584.91 81.4873 584.91 75.51V70.75H624.42C631.681 70.75 638.645 73.631 643.784 78.7605C648.923 83.8901 651.817 90.8491 651.83 98.11V98.11Z" fill="#36334A"/>
</g>
<g id="screen_lines">
<g id="screen_header">
<path id="Vector_25" d="M389 129H358V133H389V129Z" fill="#3F3D56"/>
<path id="Vector_26" d="M389 136H358V140H389V136Z" fill="#3F3D56"/>
<path id="Vector_27" d="M389 143H358V147H389V143Z" fill="#3F3D56"/>
<path id="Vector_28" d="M389 129H358V133H389V129Z" fill="#3F3D56"/>
<path id="Vector_29" d="M389 136H358V140H389V136Z" fill="#3F3D56"/>
<path id="Vector_30" d="M389 143H358V147H389V143Z" fill="#3F3D56"/>
<path id="Vector_31" d="M637.66 139H636.75L636.4 138.71C637.55 137.34 638.18 135.609 638.18 133.82C638.172 132.349 637.728 130.912 636.904 129.693C636.08 128.474 634.913 127.527 633.55 126.971C632.188 126.415 630.691 126.276 629.249 126.571C627.808 126.866 626.486 127.582 625.451 128.628C624.416 129.674 623.715 131.003 623.435 132.448C623.156 133.893 623.311 135.388 623.882 136.744C624.452 138.101 625.412 139.257 626.64 140.068C627.868 140.879 629.309 141.308 630.78 141.3C632.563 141.287 634.287 140.658 635.66 139.52L636 139.81V140.73L641.74 146.48L643.46 144.76L637.66 139ZM630.78 139C629.755 139.004 628.751 138.704 627.897 138.137C627.042 137.57 626.375 136.762 625.98 135.816C625.585 134.87 625.48 133.828 625.677 132.822C625.875 131.816 626.366 130.891 627.09 130.164C627.814 129.438 628.737 128.943 629.742 128.741C630.747 128.54 631.79 128.641 632.738 129.032C633.685 129.424 634.496 130.088 635.066 130.94C635.636 131.792 635.94 132.795 635.94 133.82C635.944 134.5 635.813 135.173 635.556 135.802C635.298 136.431 634.918 137.003 634.439 137.485C633.959 137.966 633.389 138.348 632.761 138.608C632.133 138.868 631.46 139.001 630.78 139V139Z" fill="#3F3D56"/>
<path id="Vector_32" d="M451 200H358V221H451V200Z" fill="#6C63FF"/>
<path id="Vector_33" opacity="0.3" d="M643 234H358V245H643V234Z" fill="#6C63FF"/>
<path id="Vector_34" opacity="0.3" d="M472 258H358V269H472V258Z" fill="#6C63FF"/>
<path id="Vector_35" d="M451 444H358V465H451V444Z" fill="#6C63FF"/>
<path id="Vector_36" opacity="0.3" d="M643 478H358V489H643V478Z" fill="#6C63FF"/>
<path id="Vector_37" opacity="0.3" d="M472 502H358V513H472V502Z" fill="#6C63FF"/>
<path id="Vector_38" d="M451 566H358V587H451V566Z" fill="#6C63FF"/>
<path id="Vector_39" opacity="0.3" d="M643 600H358V611H643V600Z" fill="#6C63FF"/>
<path id="Vector_40" opacity="0.3" d="M472 624H358V635H472V624Z" fill="#6C63FF"/>
</g>
</g>
<g id="menu">
<path id="Vector_41" d="M592 710C610.778 710 626 694.778 626 676C626 657.222 610.778 642 592 642C573.222 642 558 657.222 558 676C558 694.778 573.222 710 592 710Z" fill="#6C63FF"/>
<path id="Vector_42" d="M609.33 673.32V689.75C609.33 690.082 609.198 690.399 608.964 690.634C608.729 690.868 608.412 691 608.08 691H574.58C574.248 691 573.931 690.868 573.696 690.634C573.462 690.399 573.33 690.082 573.33 689.75V663.58C573.33 663.248 573.462 662.931 573.696 662.696C573.931 662.462 574.248 662.33 574.58 662.33H597.89" stroke="white" stroke-miterlimit="10" stroke-linecap="round"/>
<path id="Vector_43" d="M579.67 672H602.33" stroke="white" stroke-miterlimit="10" stroke-linecap="round"/>
<path id="Vector_44" d="M580 676.67H602.67" stroke="white" stroke-miterlimit="10" stroke-linecap="round"/>
<path id="Vector_45" d="M580.33 681.33H603" stroke="white" stroke-miterlimit="10" stroke-linecap="round"/>
<path id="Vector_46" d="M605 661V672.33" stroke="#FF00FF" stroke-miterlimit="10"/>
<path id="Vector_47" d="M610.67 666.67H599.33" stroke="#FF00FF" stroke-miterlimit="10"/>
<path id="Vector_48" d="M605 661V672.33" stroke="white" stroke-miterlimit="10" stroke-linecap="round"/>
<path id="Vector_49" d="M610.67 666.67H599.33" stroke="white" stroke-miterlimit="10" stroke-linecap="round"/>
</g>
<g id="small_tree">
<path id="Vector_50" d="M888.6 745.17C891.6 739.66 888.2 732.9 884.31 727.99C880.42 723.08 875.7 717.99 875.8 711.7C875.95 702.7 885.5 697.39 893.13 692.61C898.796 689.073 904.019 684.874 908.69 680.1C910.648 678.265 912.266 676.098 913.47 673.7C915.05 670.18 915.01 666.18 914.91 662.33C914.57 649.49 913.933 636.66 913 623.84" stroke="#3F3D56" stroke-width="4" stroke-miterlimit="10"/>
<path id="Vector_51" d="M927.51 623.14C927.404 620.789 926.706 618.503 925.483 616.493C924.26 614.483 922.549 612.814 920.51 611.64L917.37 617.86L917.47 610.33C915.968 609.89 914.404 609.701 912.84 609.77C910.078 609.907 907.418 610.859 905.197 612.506C902.975 614.153 901.291 616.421 900.356 619.024C899.422 621.626 899.28 624.448 899.947 627.131C900.615 629.815 902.062 632.241 904.106 634.103C906.151 635.966 908.701 637.18 911.436 637.595C914.17 638.009 916.966 637.604 919.47 636.432C921.975 635.259 924.076 633.371 925.509 631.005C926.941 628.64 927.641 625.903 927.52 623.14H927.51Z" fill="#57B894"/>
<path id="Vector_52" d="M902.48 718.13C901.008 720.983 898.6 723.244 895.659 724.533C892.718 725.822 889.424 726.061 886.328 725.21C883.232 724.359 880.523 722.47 878.654 719.859C876.785 717.249 875.871 714.075 876.064 710.87C876.257 707.665 877.545 704.624 879.714 702.256C881.882 699.888 884.798 698.337 887.974 697.864C891.15 697.39 894.391 698.023 897.156 699.655C899.921 701.288 902.041 703.821 903.16 706.83L894.39 713.96L904.04 711.73C904.036 713.957 903.502 716.151 902.48 718.13V718.13Z" fill="#57B894"/>
<path id="Vector_53" d="M895.55 690.88C892.063 691.126 888.61 690.059 885.87 687.888C883.13 685.717 881.301 682.6 880.743 679.149C880.185 675.698 880.939 672.163 882.855 669.239C884.772 666.316 887.713 664.215 891.1 663.35L891.02 669.13L894.2 662.84C896.041 662.75 897.882 663.024 899.617 663.648C901.353 664.271 902.947 665.231 904.31 666.472C905.673 667.714 906.778 669.212 907.56 670.881C908.343 672.551 908.788 674.358 908.87 676.2C908.952 677.819 908.749 679.441 908.27 680.99C907.427 683.748 905.752 686.178 903.475 687.948C901.199 689.719 898.431 690.742 895.55 690.88V690.88Z" fill="#57B894"/>
<path id="Vector_54" d="M929.62 668.21C927.466 668.289 925.322 667.87 923.357 666.984C921.391 666.099 919.656 664.772 918.288 663.106C916.919 661.44 915.954 659.481 915.467 657.381C914.981 655.281 914.985 653.097 915.481 650.999C915.977 648.901 916.951 646.946 918.327 645.286C919.702 643.626 921.443 642.306 923.412 641.43C925.381 640.553 927.527 640.143 929.681 640.231C931.835 640.32 933.939 640.905 935.83 641.94L933.35 648.74L938.45 643.84C941.186 646.335 942.822 649.812 943 653.51C943.067 654.81 942.949 656.113 942.65 657.38C941.96 660.361 940.313 663.034 937.959 664.99C935.606 666.946 932.677 668.077 929.62 668.21V668.21Z" fill="#57B894"/>
<path id="Vector_55" opacity="0.1" d="M925.62 626.88C922.38 627.23 919.23 628.24 915.98 628.44C912.73 628.64 909.16 627.87 907.1 625.34C906 623.98 905.44 622.26 904.51 620.77C903.622 619.386 902.406 618.242 900.97 617.44C900.123 619.21 899.658 621.138 899.604 623.1C899.551 625.061 899.91 627.012 900.659 628.826C901.408 630.639 902.53 632.275 903.952 633.627C905.374 634.979 907.064 636.018 908.913 636.674C910.762 637.331 912.729 637.592 914.685 637.44C916.641 637.287 918.544 636.726 920.269 635.791C921.994 634.856 923.504 633.569 924.699 632.013C925.895 630.457 926.751 628.668 927.21 626.76C926.683 626.78 926.153 626.82 925.62 626.88Z" fill="black"/>
<path id="Vector_56" opacity="0.1" d="M929.62 668.21C927.2 668.333 924.789 667.825 922.623 666.737C920.458 665.648 918.612 664.016 917.266 662C915.921 659.985 915.122 657.654 914.947 655.237C914.772 652.82 915.228 650.398 916.27 648.21C917.384 648.959 918.341 649.916 919.09 651.03C920.09 652.54 920.7 654.29 921.87 655.67C924.06 658.24 927.79 659.08 931.18 658.93C934.57 658.78 937.84 657.81 941.18 657.5C941.65 657.5 942.12 657.43 942.6 657.42C941.905 660.386 940.261 663.044 937.919 664.991C935.577 666.938 932.663 668.068 929.62 668.21V668.21Z" fill="black"/>
<path id="Vector_57" opacity="0.1" d="M895.55 690.88C893.152 691.001 890.763 690.504 888.613 689.436C886.463 688.367 884.623 686.764 883.271 684.78C881.92 682.795 881.101 680.496 880.894 678.104C880.687 675.712 881.099 673.307 882.09 671.12C883.254 671.88 884.271 672.846 885.09 673.97C886.18 675.51 886.86 677.29 888.14 678.71C890.51 681.34 894.49 682.27 898.07 682.19C901.65 682.11 904.9 681.26 908.35 680.99C907.502 683.76 905.815 686.199 903.523 687.971C901.23 689.742 898.445 690.759 895.55 690.88V690.88Z" fill="black"/>
<path id="Vector_58" opacity="0.1" d="M902.48 718.13C900.962 721.523 898.157 724.175 894.684 725.501C891.211 726.826 887.353 726.718 883.96 725.2C880.567 723.682 877.915 720.877 876.589 717.404C875.263 713.931 875.372 710.073 876.89 706.68C878.048 707.437 879.087 708.364 879.97 709.43C881.31 711.05 882.19 712.9 883.73 714.43C886.6 717.25 891.23 718.43 895.36 718.52C897.739 718.531 900.116 718.401 902.48 718.13V718.13Z" fill="black"/>
<path id="Vector_59" d="M867.43 738.82C867.43 738.82 878.51 738.48 881.85 736.1C885.19 733.72 898.85 730.89 899.71 734.7C900.57 738.51 916.36 753.7 903.86 753.76C891.36 753.82 874.8 751.82 871.46 749.76C868.12 747.7 867.43 738.82 867.43 738.82Z" fill="#656380"/>
<path id="Vector_60" opacity="0.2" d="M904.08 752.44C891.57 752.54 875.02 750.49 871.69 748.44C869.15 746.89 868.14 741.35 867.8 738.79H867.43C867.43 738.79 868.13 747.73 871.43 749.79C874.73 751.85 891.32 753.86 903.83 753.79C907.44 753.79 908.68 752.48 908.61 750.58C908.14 751.7 906.77 752.41 904.08 752.44Z" fill="black"/>
</g>
<g id="white_card">
<path id="Vector_61" d="M642 331.03V413.97C642 419.009 639.998 423.842 636.435 427.405C632.872 430.968 628.039 432.97 623 432.97H349.35V311.97H623C625.5 311.97 627.976 312.463 630.285 313.422C632.594 314.381 634.691 315.786 636.456 317.556C638.221 319.327 639.62 321.428 640.571 323.741C641.522 326.053 642.008 328.53 642 331.03V331.03Z" fill="#3F3D56"/>
<path id="Vector_62" d="M590.97 295H227.03C216.52 295 208 303.52 208 314.03V396.97C208 407.48 216.52 416 227.03 416H590.97C601.48 416 610 407.48 610 396.97V314.03C610 303.52 601.48 295 590.97 295Z" fill="#F2F2F2"/>
<path id="Vector_63" d="M590.97 295H227.03C216.52 295 208 303.52 208 314.03V396.97C208 407.48 216.52 416 227.03 416H590.97C601.48 416 610 407.48 610 396.97V314.03C610 303.52 601.48 295 590.97 295Z" fill="#F2F2F2"/>
<path id="Vector_64" d="M350 321H257V342H350V321Z" fill="#6C63FF"/>
<path id="Vector_65" opacity="0.3" d="M542 355H257V366H542V355Z" fill="#6C63FF"/>
<path id="Vector_66" opacity="0.3" d="M371 379H257V390H371V379Z" fill="#6C63FF"/>
</g>
<g id="lady">
<path id="Vector_67" d="M92.34 282.59C112.084 282.59 128.09 266.584 128.09 246.84C128.09 227.096 112.084 211.09 92.34 211.09C72.5958 211.09 56.59 227.096 56.59 246.84C56.59 266.584 72.5958 282.59 92.34 282.59Z" fill="#3F3D56"/>
<path id="Vector_68" d="M71.6 524.94C75.29 550.83 70.79 577.23 63.78 602.42C62.47 607.11 61.06 611.84 58.61 616.05C56.16 620.26 52.75 623.88 49.87 627.84C43.87 636.1 40.35 645.84 37.06 655.48C27.9896 682.154 20.3717 709.301 14.24 736.8C13.8705 737.927 13.8705 739.143 14.24 740.27C15.11 742.27 17.75 742.53 19.92 742.52L47.98 742.37C48.98 740.45 47.13 738.37 45.98 736.53C41.98 730.31 45.82 722.23 49.35 715.72C57.9294 699.909 64.5706 683.121 69.13 665.72C71.05 658.39 72.61 650.9 75.73 643.99C79.5 635.61 85.41 628.4 90.21 620.56C95.79 611.45 99.86 601.56 103.9 591.63C109.54 577.85 115.23 563.9 117.45 549.18C119.54 535.36 118.51 521.28 117.15 507.37C117.213 506.956 117.177 506.533 117.045 506.136C116.912 505.739 116.687 505.379 116.388 505.086C116.09 504.793 115.725 504.575 115.326 504.451C114.926 504.326 114.502 504.299 114.09 504.37L76.44 502.43C68.68 502.03 66.84 500.33 68.02 507.95C68.84 513.64 70.78 519.18 71.6 524.94Z" fill="#3F3D56"/>
<path id="Vector_69" opacity="0.1" d="M71.6 524.94C75.29 550.83 70.79 577.23 63.78 602.42C62.47 607.11 61.06 611.84 58.61 616.05C56.16 620.26 52.75 623.88 49.87 627.84C43.87 636.1 40.35 645.84 37.06 655.48C27.9896 682.154 20.3717 709.301 14.24 736.8C13.8705 737.927 13.8705 739.143 14.24 740.27C15.11 742.27 17.75 742.53 19.92 742.52L47.98 742.37C48.98 740.45 47.13 738.37 45.98 736.53C41.98 730.31 45.82 722.23 49.35 715.72C57.9294 699.909 64.5706 683.121 69.13 665.72C71.05 658.39 72.61 650.9 75.73 643.99C79.5 635.61 85.41 628.4 90.21 620.56C95.79 611.45 99.86 601.56 103.9 591.63C109.54 577.85 115.23 563.9 117.45 549.18C119.54 535.36 118.51 521.28 117.15 507.37C117.213 506.956 117.177 506.533 117.045 506.136C116.912 505.739 116.687 505.379 116.388 505.086C116.09 504.793 115.725 504.575 115.326 504.451C114.926 504.326 114.502 504.299 114.09 504.37L76.44 502.43C68.68 502.03 66.84 500.33 68.02 507.95C68.84 513.64 70.78 519.18 71.6 524.94Z" fill="black"/>
<path id="Vector_70" d="M79 461.99C71.35 472.99 63.33 485.65 65.87 498.82C67.8 508.82 75.42 516.57 82.61 523.82C111.35 552.68 139.61 584.74 149.39 624.29C151.91 634.51 153.13 645 155.3 655.29C159.24 673.99 166.3 691.87 173.3 709.64L192.02 757.02C197.838 757.163 203.56 755.512 208.408 752.292C213.256 749.072 216.996 744.438 219.12 739.02C216.66 738.83 213.45 736.45 212.01 734.45C204.01 723.38 202.37 709.14 200.32 695.64C198.05 680.72 195.02 665.92 191.98 651.13L178.58 585.71C177.03 578.16 175.48 570.6 173.46 563.17C165.64 534.34 150.82 507.17 148.53 477.36C148.19 472.98 147.98 468.17 145.01 464.92C141.89 461.49 136.77 460.92 132.14 460.65C113.41 459.41 97.25 457.58 79 461.99Z" fill="#3F3D56"/>
<path id="Vector_71" d="M28.47 736.13C26.4305 735.646 24.3457 735.378 22.25 735.33C20.2415 735.401 18.2773 735.94 16.5136 736.903C14.7498 737.867 13.2352 739.228 12.09 740.88C10.9217 742.752 10.0039 744.769 9.36001 746.88L6.65001 754.66C5.85001 756.94 5.07001 759.57 6.26001 761.66C7.13889 762.973 8.41414 763.972 9.90001 764.51C16.46 767.43 23.85 767.59 31 768.29C37.94 768.97 44.82 770.19 51.67 771.48C54.03 771.92 56.38 772.37 58.77 772.61C64.11 773.15 69.49 772.61 74.83 772.13L80.34 771.6C82.1844 771.52 84.0087 771.184 85.76 770.6C86.6349 770.303 87.4404 769.832 88.128 769.215C88.8155 768.598 89.3707 767.848 89.76 767.01C91.12 763.64 88.2 759.65 84.63 759.01C83.18 758.72 81.68 758.85 80.21 758.66C78.5439 758.374 76.9187 757.887 75.37 757.21C68.32 754.44 61.2 751.64 55 747.28C53.28 746.07 51.48 744.38 51.67 742.28C51.8488 741.381 52.1481 740.509 52.56 739.69C53.4007 737.544 53.4291 735.165 52.64 733C52.3 732.08 51.64 731.11 50.71 731C48.07 730.68 48.39 734.53 48 736C47.47 738 46.51 738.18 44.63 738C39.23 737.42 33.83 737.15 28.47 736.13Z" fill="#F2F2F2"/>
<path id="Vector_72" d="M186.34 762.96C186.388 766.867 187.732 770.648 190.16 773.71C190.902 774.623 191.829 775.37 192.88 775.9C194.446 776.544 196.141 776.814 197.83 776.69C202.59 776.586 207.294 775.635 211.72 773.88C213.279 773.174 214.883 772.569 216.52 772.07C218.581 771.648 220.664 771.348 222.76 771.17C231.03 769.98 238.29 765.1 246.28 762.63C248.667 762.038 251.007 761.27 253.28 760.33C256.44 758.84 259 756.33 261.51 753.9C262.987 752.589 264.261 751.066 265.29 749.38C266.76 746.64 266.85 743.38 266.91 740.28C266.964 739.797 266.881 739.308 266.67 738.87C266.442 738.554 266.13 738.309 265.77 738.16C263.34 736.96 260.46 737.56 257.77 738.03C248.05 739.76 238.1 739.44 228.23 739.12C227.294 739.249 226.341 739.065 225.52 738.596C224.699 738.128 224.056 737.402 223.69 736.53L219.94 730.53C218.87 728.81 217.17 726.84 215.23 727.43C213.68 727.9 213.05 729.8 213.11 731.43C213.17 733.06 213.67 734.68 213.36 736.27C213.139 737.145 212.741 737.966 212.191 738.681C211.64 739.397 210.949 739.992 210.16 740.43C208.585 741.286 206.904 741.932 205.16 742.35C199.64 743.91 193.22 745.68 188.95 749.74C185.86 752.66 186.15 759.11 186.34 762.96Z" fill="#F2F2F2"/>
<path id="Vector_73" d="M184.4 366.26C186.553 364.615 188.401 362.604 189.86 360.32C191.117 357.743 191.906 354.963 192.19 352.11L193.76 342.19C194.63 336.72 195.65 330.93 199.3 326.76C202.95 322.59 210.22 321.1 213.93 325.22C215.55 327.01 216.19 329.47 216.59 331.86C217.731 338.987 217.262 346.279 215.216 353.2C213.171 360.122 209.601 366.498 204.77 371.86C200.28 376.78 194.77 380.69 190.02 385.34C185.88 389.34 182.29 393.93 178.47 398.28C169.232 408.788 158.651 418.034 147 425.78C147.14 418.34 148.09 410.36 147 402.97C146.19 397.63 144 394.75 149.17 391.26C161.17 383.1 173.28 375.72 184.4 366.26Z" fill="#FBBEBE"/>
<path id="Vector_74" d="M83.56 293.08C83.17 298.4 80.96 303.84 76.56 306.91C89.02 311.27 101.31 316.077 113.43 321.33C111.09 319.08 110.38 315.63 110.27 312.39C109.96 303.92 112.89 295.59 117.17 288.29C117.851 287.364 118.244 286.258 118.3 285.11C118.16 282.75 115.36 281.66 113.06 281.11C105.213 279.206 97.2044 278.045 89.14 277.64C85.69 277.53 81.6 276.44 82.38 280.83C83.12 284.93 83.87 288.93 83.56 293.08Z" fill="#FBBEBE"/>
<path id="Vector_75" d="M107.66 295.93C123.803 295.93 136.89 282.843 136.89 266.7C136.89 250.557 123.803 237.47 107.66 237.47C91.5167 237.47 78.43 250.557 78.43 266.7C78.43 282.843 91.5167 295.93 107.66 295.93Z" fill="#FBBEBE"/>
<path id="Vector_76" d="M136.6 345.65C135.579 343.455 134.336 341.371 132.89 339.43C127.59 331.82 122.15 324.22 115.35 317.92C110.199 313.326 104.624 309.231 98.7 305.69C95.5036 303.499 91.9892 301.813 88.28 300.69C86.079 300.202 83.8413 299.898 81.59 299.78L74 299.16C73.3345 299.072 72.659 299.092 72 299.22C69.94 299.74 69 302.3 69.44 304.37C69.88 306.44 71.44 308.12 72.82 309.69C73.16 325.18 66.27 340.46 65.34 355.93C63.71 382.93 80.22 408.14 81.54 435.21C81.6761 436.433 81.5465 437.671 81.16 438.84C80.94 439.4 80.61 439.91 80.36 440.46C79.58 442.16 79.61 444.09 79.47 445.96C78.9252 452.629 76.0048 458.882 71.24 463.58C72.4783 465.117 74.0703 466.332 75.88 467.12C79.07 468.51 82.88 468.63 86.27 469.6C95.11 472.18 104.17 474.78 113.36 474.23C114.502 471.746 115.209 469.084 115.45 466.36C116.75 465.55 118.25 467.28 118.45 468.8C118.65 470.32 118.36 472.09 119.45 473.19C120.54 474.29 121.92 474.12 123.25 473.95C128.86 473.24 134.25 471.35 139.75 470.08C145.25 468.81 151.13 468.2 156.48 470.02C157.56 468.65 157.1 466.62 156.22 465.12C155.34 463.62 154.09 462.3 153.59 460.63C153.338 459.668 153.231 458.674 153.27 457.68C153.27 449.13 155.03 440.49 153.36 432.1C152.87 429.64 152.09 427.24 151.59 424.77C150.59 419.98 150.74 415.04 150.87 410.15C151 405.26 150.41 399.97 150.31 395.01C150.307 392.96 150.173 390.913 149.91 388.88C149.57 386.75 148.91 384.67 148.73 382.52C148.19 377.06 150.39 371.64 150.06 366.16C149.51 357.84 139.84 353.32 136.6 345.65Z" fill="#FF6584"/>
<path id="Vector_77" d="M70.63 341.73C63.55 360.51 60.09 380.43 56.63 400.21L48.63 446.67C46.36 459.8 44.08 473.01 44.17 486.33C44.17 490.07 44.41 493.88 43.43 497.49C42.15 502.23 38.97 506.18 36.56 510.49C31.67 519.292 30.0411 529.536 31.96 539.42C32.78 543.57 35.02 548.28 39.23 548.76C42.69 549.14 45.68 546.39 47.7 543.55C52.34 537.04 54.64 529.18 56.7 521.44C63.3316 496.145 67.9692 470.37 70.57 444.35C70.8172 441.056 71.2816 437.783 71.96 434.55C72.8432 431.217 73.973 427.955 75.34 424.79C78.4 417.203 81.4633 409.617 84.53 402.03C91.6 384.5 98.71 366.89 108.42 350.67C98.82 347.91 88.83 344.67 79.23 341.94C76.46 341.12 73.49 341.61 70.63 341.73Z" fill="#FBBEBE"/>
<path id="Vector_78" d="M87.27 355.97C80.55 354.52 73.6 354.97 66.74 354.8C65.7658 354.871 64.7955 354.618 63.98 354.08C62.59 352.89 63.18 350.66 63.88 348.97L67.2 340.97C67.7449 339.316 68.6539 337.806 69.86 336.55C71.55 335.05 73.93 334.68 76.17 334.41C83.46 333.57 90.96 333.29 98.03 335.26C105.1 337.23 111.75 341.71 114.91 348.34C116.23 351.1 116.84 354.58 115.09 357.09C112.49 360.82 106.66 364.99 102.31 362.95C97.1 360.51 93.11 357.24 87.27 355.97Z" fill="#FF6584"/>
<path id="Vector_79" d="M123 221.3C117.232 221.239 111.572 222.87 106.72 225.99C102.122 221.633 96.4493 218.576 90.2819 217.132C84.1146 215.688 77.6743 215.908 71.62 217.77C70.9752 214.085 69.3311 210.648 66.8669 207.834C64.4027 205.019 61.213 202.935 57.6457 201.809C54.0784 200.683 50.2704 200.558 46.6369 201.448C43.0034 202.337 39.6839 204.207 37.0404 206.854C34.3969 209.501 32.5309 212.823 31.6458 216.458C30.7607 220.092 30.8906 223.9 32.0212 227.466C33.1518 231.032 35.2398 234.219 38.0575 236.68C40.8751 239.14 44.3143 240.78 48 241.42C46.4819 245.978 45.8982 250.796 46.2838 255.585C46.6693 260.374 48.0162 265.036 50.244 269.293C52.4718 273.55 55.5348 277.314 59.2499 280.36C62.965 283.407 67.2561 285.673 71.8668 287.024C76.4775 288.375 81.3131 288.782 86.0849 288.222C90.8566 287.662 95.4665 286.146 99.6393 283.765C103.812 281.383 107.462 278.185 110.371 274.361C113.28 270.538 115.388 266.167 116.57 261.51C118.679 261.942 120.827 262.16 122.98 262.16C137.08 262.16 148.52 253.01 148.52 241.73C148.52 230.45 137.08 221.3 123 221.3Z" fill="#3F3D56"/>
<path id="Vector_80" opacity="0.1" d="M128.09 251.94C125.937 251.946 123.788 251.728 121.68 251.29C120.678 254.948 119.099 258.421 117 261.58C118.977 261.961 120.986 262.155 123 262.16C136.18 262.16 147 254.16 148.39 243.92C143.7 248.8 136.35 251.94 128.09 251.94Z" fill="black"/>
<path id="Vector_81" opacity="0.1" d="M87.23 277.51C81.6364 277.502 76.1225 276.183 71.1305 273.66C66.1385 271.136 61.8073 267.478 58.4842 262.978C55.1611 258.479 52.9386 253.263 51.9949 247.75C51.0512 242.236 51.4125 236.579 53.05 231.23C48.3184 230.398 44.0315 227.924 40.9425 224.245C37.8536 220.565 36.1602 215.914 36.16 211.11C36.158 209.882 36.2684 208.657 36.49 207.45C33.9958 210.145 32.2739 213.462 31.5055 217.052C30.737 220.643 30.9504 224.374 32.1232 227.853C33.296 231.333 35.3848 234.432 38.1699 236.824C40.9551 239.217 44.3335 240.815 47.95 241.45C45.1969 250.49 46.1349 260.252 50.5589 268.602C54.983 276.953 62.5333 283.212 71.559 286.011C80.5847 288.81 90.3516 287.922 98.7243 283.541C107.097 279.159 113.395 271.641 116.24 262.63C112.935 267.237 108.579 270.99 103.534 273.577C98.489 276.165 92.8999 277.513 87.23 277.51V277.51Z" fill="black"/>
</g>
</g>
</g>
<defs>
<clipPath id="clip0">
<rect width="974" height="805.02" fill="white"/>
</clipPath>
</defs>
</svg>
